<svg width="17" height="8" viewBox="0 0 17 8" fill="none" xmlns="http://www.w3.org/2000/svg">
<path d="M1 4.5C0.723858 4.5 0.5 4.27614 0.5 4C0.5 3.72386 0.723858 3.5 1 3.5L1 4.5ZM16.3536 3.64645C16.5488 3.84171 16.5488 4.15829 16.3536 4.35355L13.1716 7.53553C12.9763 7.7308 12.6597 7.7308 12.4645 7.53553C12.2692 7.34027 12.2692 7.02369 12.4645 6.82843L15.2929 4L12.4645 1.17157C12.2692 0.97631 12.2692 0.659727 12.4645 0.464465C12.6597 0.269203 12.9763 0.269203 13.1716 0.464465L16.3536 3.64645ZM1 3.5L16 3.5L16 4.5L1 4.5L1 3.5Z" fill="white"/>
</svg>
