<svg width="15" height="10" viewBox="0 0 15 10" fill="none" xmlns="http://www.w3.org/2000/svg">
<g clip-path="url(#clip0_102_3215)">
<path fill-rule="evenodd" clip-rule="evenodd" d="M0.66773 6.61963C3.80391 11.0948 11.0361 11.0948 14.1723 6.61963C14.8126 5.70595 14.8126 4.54114 14.1723 3.62747C11.0361 -0.847664 3.80391 -0.847665 0.66773 3.62747C0.0274233 4.54114 0.0274233 5.70595 0.66773 6.61963ZM2.04107 5.83561C1.7363 5.40075 1.7363 4.84635 2.04107 4.41149C4.53938 0.846549 10.3006 0.846549 12.7989 4.41149C13.1037 4.84635 13.1037 5.40075 12.7989 5.83561C10.3006 9.40055 4.53938 9.40055 2.04107 5.83561ZM7.39277 7.63713C8.90127 7.63713 10.1241 6.5334 10.1241 5.17188C10.1241 3.81037 8.90127 2.70665 7.39277 2.70665C5.88428 2.70665 4.6614 3.81037 4.6614 5.17188C4.6614 6.5334 5.88428 7.63713 7.39277 7.63713Z" fill="#393939"/>
</g>
<defs>
<clipPath id="clip0_102_3215">
<rect width="15" height="10" fill="white"/>
</clipPath>
</defs>
</svg>
