<svg width="17" height="9" viewBox="0 0 17 9" fill="none" xmlns="http://www.w3.org/2000/svg">
<path d="M1 5C0.723858 5 0.5 4.77614 0.5 4.5C0.5 4.22386 0.723858 4 1 4L1 5ZM16.3536 4.14645C16.5488 4.34171 16.5488 4.65829 16.3536 4.85355L13.1716 8.03553C12.9763 8.2308 12.6597 8.2308 12.4645 8.03553C12.2692 7.84027 12.2692 7.52369 12.4645 7.32843L15.2929 4.5L12.4645 1.67157C12.2692 1.47631 12.2692 1.15973 12.4645 0.964465C12.6597 0.769203 12.9763 0.769203 13.1716 0.964465L16.3536 4.14645ZM1 4L16 4L16 5L1 5L1 4Z" fill="#5768EA"/>
</svg>
