<svg width="22" height="21" viewBox="0 0 22 21" fill="none" xmlns="http://www.w3.org/2000/svg">
<path d="M10.6154 11.9584H11.3846V8.68723H14.6813V7.92397H11.3846V4.6528H10.6154V7.92397H7.31867V8.68723H10.6154V11.9584ZM11 18.9641C13.0146 17.2558 14.6401 15.4522 15.8763 13.5531C17.1126 11.654 17.7307 10.023 17.7307 8.65998C17.7307 6.66092 17.0943 5.00717 15.8214 3.69871C14.5485 2.39025 12.9414 1.73601 11 1.73601C9.0586 1.73601 7.45145 2.39025 6.17856 3.69871C4.90567 5.00717 4.26923 6.66092 4.26923 8.65998C4.26923 10.023 4.88736 11.654 6.12362 13.5531C7.35988 15.4522 8.98534 17.2558 11 18.9641ZM11 20C8.52746 17.8011 6.65933 15.7475 5.3956 13.8393C4.13187 11.9311 3.5 10.2047 3.5 8.65998C3.5 6.4792 4.21886 4.65734 5.65659 3.19441C7.09431 1.73147 8.87544 1 11 1C13.1246 1 14.9057 1.73147 16.3434 3.19441C17.7811 4.65734 18.5 6.4792 18.5 8.65998C18.5 10.2047 17.8682 11.9311 16.6044 13.8393C15.3407 15.7475 13.4725 17.8011 11 20Z" fill="#393939"/>
</svg>
