<svg width="22" height="21" viewBox="0 0 22 21" fill="none" xmlns="http://www.w3.org/2000/svg">
<path d="M5.46104 19C5.03896 19 4.68994 18.8436 4.41396 18.5309C4.13799 18.218 4 17.8225 4 17.3442V3.65585C4 3.17749 4.13799 2.78193 4.41396 2.46915C4.68994 2.15638 5.03896 2 5.46104 2H14.8604L19 6.69155V17.3442C19 17.8225 18.862 18.218 18.5861 18.5309C18.31 18.8436 17.961 19 17.539 19H5.46104ZM5.46104 18.2273H17.539C17.7663 18.2273 17.9529 18.1445 18.099 17.9789C18.2451 17.8133 18.3182 17.6018 18.3182 17.3442V7.18831H14.4221V2.77273H5.46104C5.23377 2.77273 5.04708 2.85552 4.90097 3.0211C4.75487 3.18669 4.68182 3.39827 4.68182 3.65585V17.3442C4.68182 17.6018 4.75487 17.8133 4.90097 17.9789C5.04708 18.1445 5.23377 18.2273 5.46104 18.2273ZM7.26298 14.5845H15.737V13.8117H7.26298V14.5845ZM7.26298 7.18831H11.5V6.41558H7.26298V7.18831ZM7.26298 10.8864H15.737V10.1136H7.26298V10.8864Z" fill="#393939"/>
</svg>
