<svg width="22" height="21" viewBox="0 0 22 21" fill="none" xmlns="http://www.w3.org/2000/svg">
<path d="M16.5082 11.7581C15.9918 11.7581 15.5444 11.5659 15.1658 11.1814C14.7871 10.797 14.5978 10.3427 14.5978 9.81855C14.5978 9.29435 14.7871 8.84005 15.1658 8.45564C15.5444 8.07123 15.9918 7.87903 16.5082 7.87903C17.0245 7.87903 17.4719 8.07123 17.8505 8.45564C18.2291 8.84005 18.4185 9.29435 18.4185 9.81855C18.4185 10.3427 18.2291 10.797 17.8505 11.1814C17.4719 11.5659 17.0245 11.7581 16.5082 11.7581ZM12.0163 17V16.2137C12.0163 15.9166 12.088 15.6499 12.2314 15.4135C12.3748 15.1771 12.5785 15.007 12.8424 14.9032C13.4126 14.6586 14.0026 14.4752 14.6125 14.3528C15.2222 14.2305 15.8542 14.1694 16.5082 14.1694C17.1272 14.1694 17.7424 14.2305 18.3536 14.3528C18.9648 14.4752 19.5716 14.6586 20.1739 14.9032C20.4378 15.007 20.6414 15.1771 20.7849 15.4135C20.9283 15.6499 21 15.9166 21 16.2137V17H12.0163ZM8.91847 9.66129C8.15176 9.66129 7.49541 9.38412 6.94942 8.82979C6.40343 8.27545 6.13043 7.60907 6.13043 6.83065C6.13043 6.05222 6.40343 5.38584 6.94942 4.8315C7.49541 4.27717 8.15176 4 8.91847 4C9.68518 4 10.3415 4.27717 10.8875 4.8315C11.4335 5.38584 11.7065 6.05222 11.7065 6.83065C11.7065 7.60907 11.4335 8.27545 10.8875 8.82979C10.3415 9.38412 9.68518 9.66129 8.91847 9.66129ZM2 17V15.6371C2 15.2258 2.11617 14.8477 2.34851 14.503C2.58084 14.1582 2.89493 13.9073 3.29076 13.75C4.16848 13.2957 5.08024 12.955 6.02606 12.7278C6.97186 12.5007 7.936 12.3871 8.91847 12.3871C9.27989 12.3871 9.6413 12.4002 10.0027 12.4264C10.3641 12.4526 10.7255 12.4919 11.087 12.5443L10.4674 13.2258C10.2092 13.1821 9.95108 13.1537 9.69293 13.1406C9.43478 13.1275 9.17662 13.121 8.91847 13.121C8.00633 13.121 7.10281 13.2171 6.20788 13.4093C5.31295 13.6015 4.46105 13.9247 3.65217 14.3791C3.41123 14.5188 3.19611 14.6891 3.0068 14.8901C2.81748 15.091 2.72283 15.34 2.72283 15.6371V16.2662H8.91847V17H2ZM8.91847 8.92741C9.48641 8.92741 9.97259 8.72211 10.377 8.31149C10.7815 7.90087 10.9837 7.40726 10.9837 6.83065C10.9837 6.25403 10.7815 5.76041 10.377 5.3498C9.97259 4.93918 9.48641 4.73387 8.91847 4.73387C8.35054 4.73387 7.86436 4.93918 7.45991 5.3498C7.05547 5.76041 6.85326 6.25403 6.85326 6.83065C6.85326 7.40726 7.05547 7.90087 7.45991 8.31149C7.86436 8.72211 8.35054 8.92741 8.91847 8.92741Z" fill="#393939"/>
</svg>
