<svg width="22" height="21" viewBox="0 0 22 21" fill="none" xmlns="http://www.w3.org/2000/svg">
<path d="M10.0485 13.6115H11.9515V10.858H14.75V8.98549H11.9515V6.23188H10.0485V8.98549H7.24999V10.858H10.0485V13.6115ZM11 20C8.85446 19.3391 7.06809 18.0357 5.64085 16.0898C4.21362 14.1439 3.5 11.9411 3.5 9.48114V3.75362L11 1L18.5 3.75362V9.48114C18.5 11.9411 17.7863 14.1439 16.3591 16.0898C14.9318 18.0357 13.1455 19.3391 11 20ZM11 19.1739C12.9403 18.5681 14.5448 17.3565 15.8134 15.5391C17.082 13.7218 17.7164 11.7024 17.7164 9.48114V4.2768L11 1.82608L4.28358 4.2768V9.48114C4.28358 11.7024 4.91791 13.7218 6.18655 15.5391C7.45521 17.3565 9.05968 18.5681 11 19.1739Z" fill="#393939"/>
</svg>
