<svg width="154" height="28" viewBox="0 0 154 28" fill="none" xmlns="http://www.w3.org/2000/svg">
<path d="M8.268 21.42C6.82133 21.42 5.51467 21.1727 4.348 20.678C3.19067 20.174 2.234 19.46 1.478 18.536C0.731333 17.6027 0.246 16.4967 0.0220001 15.218L3.074 14.756C3.382 15.988 4.026 16.9493 5.006 17.64C5.986 18.3213 7.12933 18.662 8.436 18.662C9.248 18.662 9.99467 18.536 10.676 18.284C11.3573 18.0227 11.9033 17.654 12.314 17.178C12.734 16.6927 12.944 16.114 12.944 15.442C12.944 15.078 12.8787 14.756 12.748 14.476C12.6267 14.196 12.454 13.9533 12.23 13.748C12.0153 13.5333 11.7493 13.3513 11.432 13.202C11.124 13.0433 10.7833 12.908 10.41 12.796L5.244 11.27C4.74 11.1207 4.22667 10.9293 3.704 10.696C3.18133 10.4533 2.70067 10.1407 2.262 9.758C1.83267 9.366 1.48267 8.88533 1.212 8.316C0.941333 7.73733 0.806 7.03733 0.806 6.216C0.806 4.97467 1.12333 3.92467 1.758 3.066C2.402 2.198 3.27 1.54467 4.362 1.106C5.454 0.657998 6.67667 0.433999 8.03 0.433999C9.39267 0.452665 10.6107 0.695332 11.684 1.162C12.7667 1.62867 13.6627 2.30067 14.372 3.178C15.0907 4.046 15.5853 5.10067 15.856 6.342L12.72 6.874C12.58 6.118 12.2813 5.46933 11.824 4.928C11.3667 4.37733 10.8067 3.95733 10.144 3.668C9.48133 3.36933 8.76267 3.21533 7.988 3.206C7.24133 3.18733 6.55533 3.29933 5.93 3.542C5.314 3.78467 4.81933 4.12533 4.446 4.564C4.082 5.00267 3.9 5.50667 3.9 6.076C3.9 6.636 4.06333 7.08867 4.39 7.434C4.71667 7.77933 5.118 8.05467 5.594 8.26C6.07933 8.456 6.56 8.61933 7.036 8.75L10.76 9.8C11.2267 9.93067 11.754 10.108 12.342 10.332C12.9393 10.5467 13.5133 10.85 14.064 11.242C14.624 11.634 15.086 12.1567 15.45 12.81C15.814 13.454 15.996 14.266 15.996 15.246C15.996 16.2633 15.7907 17.1593 15.38 17.934C14.9693 18.6993 14.4047 19.3433 13.686 19.866C12.9767 20.3793 12.1553 20.7667 11.222 21.028C10.2887 21.2893 9.304 21.42 8.268 21.42ZM29.5915 21V13.566C29.5915 12.978 29.5402 12.376 29.4375 11.76C29.3442 11.1347 29.1575 10.556 28.8775 10.024C28.6069 9.492 28.2195 9.06267 27.7155 8.736C27.2209 8.40933 26.5722 8.246 25.7695 8.246C25.2469 8.246 24.7522 8.33467 24.2855 8.512C23.8189 8.68 23.4082 8.95533 23.0535 9.338C22.7082 9.72067 22.4329 10.2247 22.2275 10.85C22.0315 11.4753 21.9335 12.236 21.9335 13.132L20.1135 12.446C20.1135 11.074 20.3702 9.86533 20.8835 8.82C21.3969 7.76533 22.1342 6.944 23.0955 6.356C24.0569 5.768 25.2189 5.474 26.5815 5.474C27.6269 5.474 28.5042 5.642 29.2135 5.978C29.9229 6.314 30.4969 6.75733 30.9355 7.308C31.3835 7.84933 31.7242 8.442 31.9575 9.086C32.1909 9.73 32.3495 10.36 32.4335 10.976C32.5175 11.592 32.5595 12.1333 32.5595 12.6V21H29.5915ZM18.9655 21V0.839999H21.5835V11.718H21.9335V21H18.9655ZM36.4861 21V5.88H39.4121V21H36.4861ZM50.7143 21.42C49.2676 21.42 48.0543 21.07 47.0743 20.37C46.0943 19.6607 45.3523 18.704 44.8483 17.5C44.3443 16.296 44.0923 14.938 44.0923 13.426C44.0923 11.914 44.3396 10.556 44.8343 9.352C45.3383 8.148 46.0756 7.20067 47.0463 6.51C48.0263 5.81 49.2303 5.46 50.6583 5.46C52.0769 5.46 53.2996 5.81 54.3263 6.51C55.3623 7.20067 56.1603 8.148 56.7203 9.352C57.2803 10.5467 57.5603 11.9047 57.5603 13.426C57.5603 14.938 57.2803 16.3007 56.7203 17.514C56.1696 18.718 55.3809 19.67 54.3543 20.37C53.3369 21.07 52.1236 21.42 50.7143 21.42ZM43.6023 27.72V5.88H46.2063V16.758H46.5423V27.72H43.6023ZM50.3083 18.774C51.2416 18.774 52.0116 18.536 52.6183 18.06C53.2343 17.584 53.6916 16.9447 53.9903 16.142C54.2983 15.33 54.4523 14.4247 54.4523 13.426C54.4523 12.4367 54.2983 11.5407 53.9903 10.738C53.6916 9.93533 53.2296 9.296 52.6043 8.82C51.9789 8.344 51.1809 8.106 50.2103 8.106C49.2956 8.106 48.5396 8.33 47.9423 8.778C47.3543 9.226 46.9156 9.85133 46.6263 10.654C46.3463 11.4567 46.2063 12.3807 46.2063 13.426C46.2063 14.4713 46.3463 15.3953 46.6263 16.198C46.9063 17.0007 47.3496 17.6307 47.9563 18.088C48.5629 18.5453 49.3469 18.774 50.3083 18.774ZM64.9214 21.42C63.8014 21.42 62.8634 21.2147 62.1074 20.804C61.3514 20.384 60.7774 19.8333 60.3854 19.152C60.0027 18.4613 59.8114 17.7053 59.8114 16.884C59.8114 16.1187 59.9467 15.4467 60.2174 14.868C60.4881 14.2893 60.8894 13.7993 61.4214 13.398C61.9534 12.9873 62.6067 12.656 63.3814 12.404C64.0534 12.208 64.8141 12.0353 65.6634 11.886C66.5127 11.7367 67.4041 11.5967 68.3374 11.466C69.2801 11.3353 70.2134 11.2047 71.1374 11.074L70.0734 11.662C70.0921 10.4767 69.8401 9.59933 69.3174 9.03C68.8041 8.45133 67.9174 8.162 66.6574 8.162C65.8641 8.162 65.1361 8.34867 64.4734 8.722C63.8107 9.086 63.3487 9.69267 63.0874 10.542L60.3574 9.702C60.7307 8.40467 61.4401 7.37333 62.4854 6.608C63.5401 5.84267 64.9401 5.46 66.6854 5.46C68.0387 5.46 69.2147 5.69333 70.2134 6.16C71.2214 6.61733 71.9587 7.34533 72.4254 8.344C72.6681 8.83867 72.8174 9.36133 72.8734 9.912C72.9294 10.4627 72.9574 11.0553 72.9574 11.69V21H70.3674V17.542L70.8714 17.99C70.2461 19.1473 69.4481 20.0107 68.4774 20.58C67.5161 21.14 66.3307 21.42 64.9214 21.42ZM65.4394 19.026C66.2701 19.026 66.9841 18.8813 67.5814 18.592C68.1787 18.2933 68.6594 17.9153 69.0234 17.458C69.3874 17.0007 69.6254 16.5247 69.7374 16.03C69.8961 15.582 69.9847 15.078 70.0034 14.518C70.0314 13.958 70.0454 13.51 70.0454 13.174L70.9974 13.524C70.0734 13.664 69.2334 13.79 68.4774 13.902C67.7214 14.014 67.0354 14.126 66.4194 14.238C65.8127 14.3407 65.2714 14.4667 64.7954 14.616C64.3941 14.756 64.0347 14.924 63.7174 15.12C63.4094 15.316 63.1621 15.554 62.9754 15.834C62.7981 16.114 62.7094 16.4547 62.7094 16.856C62.7094 17.248 62.8074 17.612 63.0034 17.948C63.1994 18.2747 63.4981 18.536 63.8994 18.732C64.3007 18.928 64.8141 19.026 65.4394 19.026ZM76.5788 21L76.5928 0.839999H79.5608V13.16L85.4968 5.88H89.2208L82.9488 13.44L89.8648 21H85.8888L79.5608 13.72V21H76.5788ZM97.709 21.42C96.2063 21.42 94.8856 21.0933 93.747 20.44C92.6176 19.7773 91.7356 18.858 91.101 17.682C90.4756 16.4967 90.163 15.1247 90.163 13.566C90.163 11.914 90.471 10.4813 91.087 9.268C91.7123 8.05467 92.5803 7.11667 93.691 6.454C94.8016 5.79133 96.0943 5.46 97.569 5.46C99.109 5.46 100.42 5.81933 101.503 6.538C102.586 7.24733 103.393 8.26 103.925 9.576C104.466 10.892 104.681 12.4553 104.569 14.266H101.643V13.202C101.624 11.4473 101.288 10.15 100.635 9.31C99.991 8.47 99.0063 8.05 97.681 8.05C96.2156 8.05 95.1143 8.512 94.377 9.436C93.6396 10.36 93.271 11.6947 93.271 13.44C93.271 15.1013 93.6396 16.3893 94.377 17.304C95.1143 18.2093 96.1783 18.662 97.569 18.662C98.4836 18.662 99.2723 18.4567 99.935 18.046C100.607 17.626 101.13 17.0287 101.503 16.254L104.373 17.164C103.785 18.5173 102.894 19.5673 101.699 20.314C100.504 21.0513 99.1743 21.42 97.709 21.42ZM92.319 14.266V11.984H103.113V14.266H92.319ZM107.71 21V5.88H110.314V9.548L109.95 9.072C110.137 8.58667 110.379 8.14333 110.678 7.742C110.977 7.33133 111.322 6.99533 111.714 6.734C112.097 6.454 112.521 6.23933 112.988 6.09C113.464 5.93133 113.949 5.838 114.444 5.81C114.939 5.77267 115.415 5.796 115.872 5.88V8.624C115.377 8.49333 114.827 8.456 114.22 8.512C113.623 8.568 113.072 8.75933 112.568 9.086C112.092 9.394 111.714 9.76733 111.434 10.206C111.163 10.6447 110.967 11.1347 110.846 11.676C110.725 12.208 110.664 12.7727 110.664 13.37V21H107.71ZM116.8 21V17.906H119.894V21H116.8ZM130.006 21.406C128.96 21.406 128.083 21.238 127.374 20.902C126.664 20.566 126.086 20.1273 125.638 19.586C125.199 19.0353 124.863 18.438 124.63 17.794C124.396 17.15 124.238 16.52 124.154 15.904C124.07 15.288 124.028 14.7467 124.028 14.28V5.88H126.996V13.314C126.996 13.902 127.042 14.5087 127.136 15.134C127.238 15.75 127.425 16.324 127.696 16.856C127.976 17.388 128.363 17.8173 128.858 18.144C129.362 18.4707 130.015 18.634 130.818 18.634C131.34 18.634 131.835 18.55 132.302 18.382C132.768 18.2047 133.174 17.9247 133.52 17.542C133.874 17.1593 134.15 16.6553 134.346 16.03C134.551 15.4047 134.654 14.644 134.654 13.748L136.474 14.434C136.474 15.806 136.217 17.0193 135.704 18.074C135.19 19.1193 134.453 19.936 133.492 20.524C132.53 21.112 131.368 21.406 130.006 21.406ZM135.004 21V16.632H134.654V5.88H137.608V21H135.004ZM140.134 21V20.538L148.716 8.498H140.918V5.88H153.364V6.356L144.796 18.382H152.944V21H140.134Z" fill="white"/>
</svg>
