<svg width="111" height="20" viewBox="0 0 111 20" fill="none" xmlns="http://www.w3.org/2000/svg">
<path d="M6.62 15.3C5.58667 15.3 4.65333 15.1233 3.82 14.77C2.99333 14.41 2.31 13.9 1.77 13.24C1.23667 12.5733 0.89 11.7833 0.73 10.87L2.91 10.54C3.13 11.42 3.59 12.1067 4.29 12.6C4.99 13.0867 5.80667 13.33 6.74 13.33C7.32 13.33 7.85333 13.24 8.34 13.06C8.82667 12.8733 9.21667 12.61 9.51 12.27C9.81 11.9233 9.96 11.51 9.96 11.03C9.96 10.77 9.91333 10.54 9.82 10.34C9.73333 10.14 9.61 9.96667 9.45 9.82C9.29667 9.66667 9.10667 9.53667 8.88 9.43C8.66 9.31667 8.41667 9.22 8.15 9.14L4.46 8.05C4.1 7.94333 3.73333 7.80667 3.36 7.64C2.98667 7.46667 2.64333 7.24333 2.33 6.97C2.02333 6.69 1.77333 6.34667 1.58 5.94C1.38667 5.52667 1.29 5.02667 1.29 4.44C1.29 3.55333 1.51667 2.80333 1.97 2.19C2.43 1.57 3.05 1.10333 3.83 0.789999C4.61 0.469999 5.48333 0.309999 6.45 0.309999C7.42333 0.323332 8.29333 0.496666 9.06 0.829999C9.83333 1.16333 10.4733 1.64333 10.98 2.27C11.4933 2.89 11.8467 3.64333 12.04 4.53L9.8 4.91C9.7 4.37 9.48667 3.90667 9.16 3.52C8.83333 3.12667 8.43333 2.82667 7.96 2.62C7.48667 2.40667 6.97333 2.29667 6.42 2.29C5.88667 2.27667 5.39667 2.35667 4.95 2.53C4.51 2.70333 4.15667 2.94667 3.89 3.26C3.63 3.57333 3.5 3.93333 3.5 4.34C3.5 4.74 3.61667 5.06333 3.85 5.31C4.08333 5.55667 4.37 5.75333 4.71 5.9C5.05667 6.04 5.4 6.15667 5.74 6.25L8.4 7C8.73333 7.09333 9.11 7.22 9.53 7.38C9.95667 7.53333 10.3667 7.75 10.76 8.03C11.16 8.31 11.49 8.68333 11.75 9.15C12.01 9.61 12.14 10.19 12.14 10.89C12.14 11.6167 11.9933 12.2567 11.7 12.81C11.4067 13.3567 11.0033 13.8167 10.49 14.19C9.98333 14.5567 9.39667 14.8333 8.73 15.02C8.06333 15.2067 7.36 15.3 6.62 15.3ZM21.8511 15V9.69C21.8511 9.27 21.8144 8.84 21.7411 8.4C21.6744 7.95333 21.5411 7.54 21.3411 7.16C21.1478 6.78 20.8711 6.47333 20.5111 6.24C20.1578 6.00667 19.6944 5.89 19.1211 5.89C18.7478 5.89 18.3944 5.95333 18.0611 6.08C17.7278 6.2 17.4344 6.39667 17.1811 6.67C16.9344 6.94333 16.7378 7.30333 16.5911 7.75C16.4511 8.19667 16.3811 8.74 16.3811 9.38L15.0811 8.89C15.0811 7.91 15.2644 7.04667 15.6311 6.3C15.9978 5.54667 16.5244 4.96 17.2111 4.54C17.8978 4.12 18.7278 3.91 19.7011 3.91C20.4478 3.91 21.0744 4.03 21.5811 4.27C22.0878 4.51 22.4978 4.82667 22.8111 5.22C23.1311 5.60667 23.3744 6.03 23.5411 6.49C23.7078 6.95 23.8211 7.4 23.8811 7.84C23.9411 8.28 23.9711 8.66667 23.9711 9V15H21.8511ZM14.2611 15V0.599999H16.1311V8.37H16.3811V15H14.2611ZM26.7758 15V4.2H28.8658V15H26.7758ZM36.9388 15.3C35.9054 15.3 35.0388 15.05 34.3388 14.55C33.6388 14.0433 33.1088 13.36 32.7488 12.5C32.3888 11.64 32.2088 10.67 32.2088 9.59C32.2088 8.51 32.3854 7.54 32.7388 6.68C33.0988 5.82 33.6254 5.14333 34.3188 4.65C35.0188 4.15 35.8788 3.9 36.8988 3.9C37.9121 3.9 38.7854 4.15 39.5188 4.65C40.2588 5.14333 40.8288 5.82 41.2288 6.68C41.6288 7.53333 41.8288 8.50333 41.8288 9.59C41.8288 10.67 41.6288 11.6433 41.2288 12.51C40.8354 13.37 40.2721 14.05 39.5388 14.55C38.8121 15.05 37.9454 15.3 36.9388 15.3ZM31.8588 19.8V4.2H33.7188V11.97H33.9588V19.8H31.8588ZM36.6488 13.41C37.3154 13.41 37.8654 13.24 38.2988 12.9C38.7388 12.56 39.0654 12.1033 39.2788 11.53C39.4988 10.95 39.6088 10.3033 39.6088 9.59C39.6088 8.88333 39.4988 8.24333 39.2788 7.67C39.0654 7.09667 38.7354 6.64 38.2888 6.3C37.8421 5.96 37.2721 5.79 36.5788 5.79C35.9254 5.79 35.3854 5.95 34.9588 6.27C34.5388 6.59 34.2254 7.03667 34.0188 7.61C33.8188 8.18333 33.7188 8.84333 33.7188 9.59C33.7188 10.3367 33.8188 10.9967 34.0188 11.57C34.2188 12.1433 34.5354 12.5933 34.9688 12.92C35.4021 13.2467 35.9621 13.41 36.6488 13.41ZM47.0867 15.3C46.2867 15.3 45.6167 15.1533 45.0767 14.86C44.5367 14.56 44.1267 14.1667 43.8467 13.68C43.5734 13.1867 43.4367 12.6467 43.4367 12.06C43.4367 11.5133 43.5334 11.0333 43.7267 10.62C43.9201 10.2067 44.2067 9.85667 44.5867 9.57C44.9667 9.27667 45.4334 9.04 45.9867 8.86C46.4667 8.72 47.0101 8.59667 47.6167 8.49C48.2234 8.38333 48.8601 8.28333 49.5267 8.19C50.2001 8.09667 50.8667 8.00333 51.5267 7.91L50.7667 8.33C50.7801 7.48333 50.6001 6.85667 50.2267 6.45C49.8601 6.03667 49.2267 5.83 48.3267 5.83C47.7601 5.83 47.2401 5.96333 46.7667 6.23C46.2934 6.49 45.9634 6.92333 45.7767 7.53L43.8267 6.93C44.0934 6.00333 44.6001 5.26667 45.3467 4.72C46.1001 4.17333 47.1001 3.9 48.3467 3.9C49.3134 3.9 50.1534 4.06667 50.8667 4.4C51.5867 4.72667 52.1134 5.24667 52.4467 5.96C52.6201 6.31333 52.7267 6.68667 52.7667 7.08C52.8067 7.47333 52.8267 7.89667 52.8267 8.35V15H50.9767V12.53L51.3367 12.85C50.8901 13.6767 50.3201 14.2933 49.6267 14.7C48.9401 15.1 48.0934 15.3 47.0867 15.3ZM47.4567 13.59C48.0501 13.59 48.5601 13.4867 48.9867 13.28C49.4134 13.0667 49.7567 12.7967 50.0167 12.47C50.2767 12.1433 50.4467 11.8033 50.5267 11.45C50.6401 11.13 50.7034 10.77 50.7167 10.37C50.7367 9.97 50.7467 9.65 50.7467 9.41L51.4267 9.66C50.7667 9.76 50.1667 9.85 49.6267 9.93C49.0867 10.01 48.5967 10.09 48.1567 10.17C47.7234 10.2433 47.3367 10.3333 46.9967 10.44C46.7101 10.54 46.4534 10.66 46.2267 10.8C46.0067 10.94 45.8301 11.11 45.6967 11.31C45.5701 11.51 45.5067 11.7533 45.5067 12.04C45.5067 12.32 45.5767 12.58 45.7167 12.82C45.8567 13.0533 46.0701 13.24 46.3567 13.38C46.6434 13.52 47.0101 13.59 47.4567 13.59ZM55.4134 15L55.4234 0.599999H57.5434V9.4L61.7834 4.2H64.4434L59.9634 9.6L64.9034 15H62.0634L57.5434 9.8V15H55.4134ZM70.5064 15.3C69.4331 15.3 68.4897 15.0667 67.6764 14.6C66.8697 14.1267 66.2397 13.47 65.7864 12.63C65.3397 11.7833 65.1164 10.8033 65.1164 9.69C65.1164 8.51 65.3364 7.48667 65.7764 6.62C66.2231 5.75333 66.8431 5.08333 67.6364 4.61C68.4297 4.13667 69.3531 3.9 70.4064 3.9C71.5064 3.9 72.4431 4.15667 73.2164 4.67C73.9897 5.17667 74.5664 5.9 74.9464 6.84C75.3331 7.78 75.4864 8.89667 75.4064 10.19H73.3164V9.43C73.3031 8.17667 73.0631 7.25 72.5964 6.65C72.1364 6.05 71.4331 5.75 70.4864 5.75C69.4397 5.75 68.6531 6.08 68.1264 6.74C67.5997 7.4 67.3364 8.35333 67.3364 9.6C67.3364 10.7867 67.5997 11.7067 68.1264 12.36C68.6531 13.0067 69.4131 13.33 70.4064 13.33C71.0597 13.33 71.6231 13.1833 72.0964 12.89C72.5764 12.59 72.9497 12.1633 73.2164 11.61L75.2664 12.26C74.8464 13.2267 74.2097 13.9767 73.3564 14.51C72.5031 15.0367 71.5531 15.3 70.5064 15.3ZM66.6564 10.19V8.56H74.3664V10.19H66.6564ZM77.65 15V4.2H79.51V6.82L79.25 6.48C79.3833 6.13333 79.5567 5.81667 79.77 5.53C79.9833 5.23667 80.23 4.99667 80.51 4.81C80.7833 4.61 81.0867 4.45667 81.42 4.35C81.76 4.23667 82.1067 4.17 82.46 4.15C82.8133 4.12333 83.1533 4.14 83.48 4.2V6.16C83.1267 6.06667 82.7333 6.04 82.3 6.08C81.8733 6.12 81.48 6.25667 81.12 6.49C80.78 6.71 80.51 6.97667 80.31 7.29C80.1167 7.60333 79.9767 7.95333 79.89 8.34C79.8033 8.72 79.76 9.12333 79.76 9.55V15H77.65ZM84.1428 15V12.79H86.3528V15H84.1428ZM93.5755 15.29C92.8288 15.29 92.2021 15.17 91.6955 14.93C91.1888 14.69 90.7755 14.3767 90.4555 13.99C90.1421 13.5967 89.9021 13.17 89.7355 12.71C89.5688 12.25 89.4555 11.8 89.3955 11.36C89.3355 10.92 89.3055 10.5333 89.3055 10.2V4.2H91.4255V9.51C91.4255 9.93 91.4588 10.3633 91.5255 10.81C91.5988 11.25 91.7321 11.66 91.9255 12.04C92.1255 12.42 92.4021 12.7267 92.7555 12.96C93.1155 13.1933 93.5821 13.31 94.1555 13.31C94.5288 13.31 94.8821 13.25 95.2155 13.13C95.5488 13.0033 95.8388 12.8033 96.0855 12.53C96.3388 12.2567 96.5355 11.8967 96.6755 11.45C96.8221 11.0033 96.8955 10.46 96.8955 9.82L98.1955 10.31C98.1955 11.29 98.0121 12.1567 97.6455 12.91C97.2788 13.6567 96.7521 14.24 96.0655 14.66C95.3788 15.08 94.5488 15.29 93.5755 15.29ZM97.1455 15V11.88H96.8955V4.2H99.0055V15H97.1455ZM100.81 15V14.67L106.94 6.07H101.37V4.2H110.26V4.54L104.14 13.13H109.96V15H100.81Z" fill="#393939"/>
</svg>
